<svg xmlns="http://www.w3.org/2000/svg" viewBox="0 197.224 500 101.093"><path fill="#D0232A" d="M175.09 222.288v10.519c-5.07-4.289-10.316-6.437-15.737-6.446a19.95 19.95 0 0 0-15.063 6.526 22.129 22.129 0 0 0-6.176 15.872 21.577 21.577 0 0 0 6.176 15.629 20.233 20.233 0 0 0 15.144 6.379c2.673.06 5.328-.461 7.781-1.524a22.68 22.68 0 0 0 3.735-2.063 44.843 44.843 0 0 0 4.046-3.129v10.721a31.36 31.36 0 0 1-15.818 4.303 28.978 28.978 0 0 1-21.279-8.807 29.384 29.384 0 0 1-8.685-21.374 30.448 30.448 0 0 1 7.35-20.052 29.089 29.089 0 0 1 23.396-10.788 29.391 29.391 0 0 1 15.13 4.234zm5.61-4.909h8.469v26.566a14.535 14.535 0 0 1 9.979-4.045 12.867 12.867 0 0 1 9.952 4.045c2.104 2.373 3.156 6.154 3.156 11.341v22.722h-8.469v-21.967c0-2.98-.526-5.138-1.564-6.459a5.957 5.957 0 0 0-5.03-2.036c-2.967 0-5.043.93-6.257 2.778-1.214 1.847-1.767 5.111-1.767 9.696v17.988H180.7v-60.629zm65.484 23.424h8.51v37.205h-8.51v-3.883c-6.21 6.426-16.455 6.602-22.881.391-.334-.322-.655-.66-.96-1.012a20.848 20.848 0 0 1-4.936-14.186 20.225 20.225 0 0 1 4.936-13.917 15.776 15.776 0 0 1 12.298-5.569 15.51 15.51 0 0 1 11.489 5.394l.054-4.423zm-20.12 18.515a13.023 13.023 0 0 0 2.832 8.697 9.193 9.193 0 0 0 7.309 3.398 9.662 9.662 0 0 0 7.606-3.276 12.855 12.855 0 0 0 2.899-8.631 12.835 12.835 0 0 0-2.899-8.616 9.532 9.532 0 0 0-7.539-3.345 9.335 9.335 0 0 0-7.309 3.357 12.494 12.494 0 0 0-2.899 8.416zm44.217-10.424v29.114h-8.482v-29.114h-3.613v-8.091h3.613v-13.566h8.482v13.566h6.581v8.091h-6.581z"/><path fill="#333" d="M312.49 225.97h-23.316v14.833h22.642v8.01h-22.669v20.552h23.316v8.59h-32.095v-60.562h32.095l.027 8.577zm6.041 14.833h8.522v3.438a13.774 13.774 0 0 1 10.073-4.41 12.607 12.607 0 0 1 9.979 4.046c2.059 2.319 3.088 6.1 3.088 11.341v22.789h-8.509v-20.753c0-3.654-.513-6.189-1.511-7.579-.998-1.389-2.765-2.144-5.395-2.144a6.542 6.542 0 0 0-5.987 2.818c-1.142 1.86-1.717 5.106-1.726 9.736v17.921h-8.522l-.012-37.203zm73.885 36.329c0 1.753-.067 3.304-.176 4.64a30.512 30.512 0 0 1-.472 3.52 15.842 15.842 0 0 1-3.533 7.214c-3.317 3.866-7.875 5.799-13.674 5.799a18.1 18.1 0 0 1-12.137-4.046 16.452 16.452 0 0 1-5.65-11.408h8.672a9.702 9.702 0 0 0 1.618 4.234 9.074 9.074 0 0 0 7.687 3.479c6.203 0 9.305-3.852 9.305-11.557v-5.15a15.727 15.727 0 0 1-11.638 5.219 15.539 15.539 0 0 1-12.366-5.488 20.512 20.512 0 0 1-4.801-13.904 21.634 21.634 0 0 1 4.478-13.808 15.507 15.507 0 0 1 12.729-6.028 14.713 14.713 0 0 1 11.53 5.219v-4.261h8.428v36.326zm-8.091-17.625a12.678 12.678 0 0 0-2.859-8.657 9.438 9.438 0 0 0-7.416-3.317 9.101 9.101 0 0 0-7.619 3.628 13.32 13.32 0 0 0-2.522 8.387c-.12 2.979.769 5.91 2.522 8.32a9.123 9.123 0 0 0 7.619 3.547 9.28 9.28 0 0 0 7.687-3.587 12.933 12.933 0 0 0 2.588-8.321zm13.7-34.09a5.394 5.394 0 0 1 1.618-3.897 5.516 5.516 0 0 1 9.441 3.924 5.467 5.467 0 0 1-1.618 3.978 5.178 5.178 0 0 1-3.884 1.631 5.296 5.296 0 0 1-3.911-1.631 5.492 5.492 0 0 1-1.646-4.005zm9.75 15.386v37.205h-8.469v-37.205h8.469zm5.92 0h8.779v3.438a14.384 14.384 0 0 1 10.315-4.463 13.186 13.186 0 0 1 10.289 4.045c2.113 2.319 3.174 6.1 3.183 11.341v22.843h-8.778v-20.753c0-3.654-.513-6.189-1.551-7.579-1.039-1.389-2.846-2.13-5.502-2.13-2.895 0-4.954.939-6.177 2.818s-1.815 5.124-1.779 9.736v17.907h-8.779v-37.203zm73.481 20.66h-26.781a11.229 11.229 0 0 0 2.993 7.281 9.157 9.157 0 0 0 6.743 2.697 8.906 8.906 0 0 0 5.394-1.523 21.74 21.74 0 0 0 4.72-5.65l7.296 4.045a28.3 28.3 0 0 1-3.587 4.855 18.894 18.894 0 0 1-4.046 3.357 16.377 16.377 0 0 1-4.652 1.928c-1.768.416-3.578.62-5.394.607a17.621 17.621 0 0 1-13.485-5.395c-3.381-3.596-5.07-8.352-5.07-14.268 0-5.915 1.636-10.666 4.908-14.253a16.992 16.992 0 0 1 13.135-5.394c5.502 0 9.849 1.739 13.04 5.219 3.191 3.479 4.778 8.276 4.76 14.389l.026 2.105zm-8.86-7.026c-1.2-4.571-4.113-6.864-8.712-6.864a9.146 9.146 0 0 0-2.953.472 8.602 8.602 0 0 0-2.521 1.349 8.976 8.976 0 0 0-1.942 2.158c-.551.886-.964 1.85-1.227 2.859l17.355.026z"/><path fill="none" stroke="#D0232A" stroke-width="2" stroke-miterlimit="10" d="M26.175 219.281l35.142-9.062m-29.25 48.155l36.262.081m-14.685-15.724l-3.143 40.253m40.361-23.855L64.58 290.752"/><circle fill="none" stroke="#333" stroke-width="2" stroke-miterlimit="10" cx="80.465" cy="232.051" r="19.216"/><circle fill="none" stroke="#333" stroke-width="2" stroke-miterlimit="10" cx="80.465" cy="232.051" r="5.65"/><circle fill="none" stroke="#333" stroke-width="2" stroke-miterlimit="10" cx="80.465" cy="232.051" r="29.006"/><circle fill="none" stroke="#333" stroke-width="2" stroke-miterlimit="10" cx="56.665" cy="288.608" r="8.212"/><circle fill="none" stroke="#333" stroke-width="2" stroke-miterlimit="10" cx="22.25" cy="239.738" r="20.902"/><path fill="none" stroke="#333" stroke-width="2" stroke-linecap="round" stroke-linejoin="round" d="M20.025 231.444l-6.068 6.069 2.225 8.293 8.294 2.225 6.068-6.068-2.225-8.307z"/><path fill="#333" d="M491.289 273.842v5.232h-.917v-5.232h-1.349v-.863h3.722v.863h-1.456zm2.009 5.232l1.281-6.555 2.09 4.693 2.171-4.746 1.16 6.553h-.944l-.593-3.682-1.808 3.965-1.753-3.91-.647 3.682h-.957z"/><path fill="#D02129" d="M441.602 234.181l-.681-.075a14.535 14.535 0 0 1-3.476-.799.26.26 0 0 1-.201-.295c.006-4.917.006-9.84 0-14.759v-.22h2.28v5.073l.348-.125a8.809 8.809 0 0 1 3.449-.566c1.89.08 3.295 1.094 3.963 2.852.295.807.441 1.654.441 2.512a10.57 10.57 0 0 1-.346 3.077c-.492 1.791-1.684 2.83-3.489 3.176-.281.058-.563.075-.843.112-.04.012-.084.02-.124.038h-1.321zm-2.078-5.88v3.493a.231.231 0 0 0 .187.257c.68.25 1.393.404 2.115.459a4.54 4.54 0 0 0 1.53-.1c.961-.247 1.522-.9 1.777-1.822a9.322 9.322 0 0 0 .193-4.099 2.979 2.979 0 0 0-.691-1.555c-.573-.649-1.336-.876-2.17-.89a7.39 7.39 0 0 0-2.767.516.22.22 0 0 0-.175.25c.008 1.164.001 2.327.001 3.491m40.567 5.88l-.69-.07a14.574 14.574 0 0 1-3.478-.794.268.268 0 0 1-.204-.299c.006-4.922.006-9.85 0-14.775v-.205h2.269v5.063c.156-.054.286-.095.415-.146a8.65 8.65 0 0 1 3.385-.541c1.924.084 3.325 1.114 3.991 2.916.373.992.448 2.031.414 3.079a9.271 9.271 0 0 1-.424 2.702c-.518 1.59-1.626 2.529-3.239 2.886-.336.071-.682.1-1.025.148a1.602 1.602 0 0 0-.148.035h-1.266zm-2.088-5.887v3.529c0 .104.016.17.125.212.97.366 2.003.531 3.036.482.61-.033 1.177-.2 1.653-.607.45-.387.689-.89.836-1.446a9.58 9.58 0 0 0 .164-3.892 3.148 3.148 0 0 0-.642-1.563c-.575-.701-1.354-.946-2.226-.959a7.303 7.303 0 0 0-2.79.516.216.216 0 0 0-.161.237v3.493m-63.802-9.331s3.575-.009 5.256 0c.8-.009 1.589.108 2.354.333 1.38.433 2.196 1.426 2.355 2.869a6.933 6.933 0 0 1-.085 2.235c-.281 1.315-1.104 2.138-2.35 2.57a6.805 6.805 0 0 1-2.17.346c-.953.011-1.899 0-2.855 0h-.226v6.579h-2.279v-14.932zm2.283 6.701c.045 0 .074.008.104.008.879 0 1.756.008 2.628-.008a5.685 5.685 0 0 0 1.098-.142c.745-.166 1.29-.573 1.489-1.347.167-.623.191-1.28.071-1.918-.139-.759-.579-1.266-1.332-1.449a7.347 7.347 0 0 0-1.382-.191c-.826-.029-1.656-.009-2.488-.009-.058 0-.124 0-.19.009l.002 5.047zm13.22 8.515c-.278-.038-.557-.068-.837-.112a5.024 5.024 0 0 1-1.861-.645c-.887-.549-1.343-1.369-1.447-2.396a9.225 9.225 0 0 1-.031-.882v-7.479h2.274v6.746a5.282 5.282 0 0 0 .201 1.605c.269.86.87 1.352 1.746 1.456a8.235 8.235 0 0 0 3.199-.287.222.222 0 0 0 .193-.253v-.009c-.008-3.015-.008-6.023 0-9.038v-.225h2.273v10.502a.239.239 0 0 1-.19.282h-.02a20.904 20.904 0 0 1-4.064.697c-.043.009-.085.017-.126.035h-1.31zm38.483 0c-.275-.038-.556-.068-.835-.112a5.002 5.002 0 0 1-1.833-.629c-.902-.539-1.366-1.354-1.479-2.391a8.762 8.762 0 0 1-.035-.81v-7.575h2.281v6.868a4.92 4.92 0 0 0 .219 1.535c.28.843.876 1.31 1.74 1.414a8.613 8.613 0 0 0 3.133-.271.288.288 0 0 0 .248-.315c0-.009 0-.013-.003-.018-.005-2.993-.005-5.99 0-8.983v-.229h2.267c0 .066.01.126.01.187V233.2a.203.203 0 0 1-.163.232c-.009 0-.009.004-.016.004a20.749 20.749 0 0 1-4.076.71.92.92 0 0 0-.151.031l-1.307.004zm-6.379-.285h-3.307a.24.24 0 0 1-.265-.152c-.923-1.793-1.853-3.579-2.78-5.368l-3.806-7.325a.23.23 0 0 0-.105-.116v12.955h-1.99v-14.917c.056 0 .11-.008.169-.008h3.111a.222.222 0 0 1 .236.15c2.208 4.248 4.415 8.501 6.63 12.755.021.049.06.091.106.12v-13.01h2.006l-.005 14.916z"/></svg>