<svg xmlns="http://www.w3.org/2000/svg" viewBox="0 0 31.18 31.18"><g data-name="Layer 2"><g data-name="Layer 1"><circle cx="15.59" cy="15.59" r="15.59" fill="#16b0e7"/><path d="M21.91 12.68q-.08 1.83-2.58 5T15 21q-1.11 0-1.87-2l-1-3.71q-.57-2-1.22-2a3.93 3.93 0 0 0-1 .59l-.6-.76 1.85-1.63A4.19 4.19 0 0 1 13 10.32q1.47-.14 1.82 2 .37 2.3.51 2.87.43 1.91.94 1.91t1.19-1.23a4.83 4.83 0 0 0 .82-1.87c.08-.71-.21-1.07-.85-1.07a2.44 2.44 0 0 0-.94.2q.94-3 3.58-2.92 2 .05 1.84 2.5" fill="#fff"/></g></g></svg>