<svg xmlns="http://www.w3.org/2000/svg" viewBox="0 0 31.18 31.18"><g data-name="Layer 2"><g data-name="Layer 1"><circle cx="15.59" cy="15.59" r="15.59" fill="#cd2027"/><path d="M14 17.66v-4.48l4.28 2.25zm9.39-5.25a3.46 3.46 0 0 0-.63-1.58 2.25 2.25 0 0 0-1.59-.67C18.91 10 15.59 10 15.59 10s-3.32 0-5.54.16a2.25 2.25 0 0 0-1.59.67 3.46 3.46 0 0 0-.63 1.58A24.27 24.27 0 0 0 7.68 15v1.21a24.26 24.26 0 0 0 .16 2.58 3.46 3.46 0 0 0 .63 1.58 2.67 2.67 0 0 0 1.74.68c1.27.12 5.38.16 5.38.16s3.32 0 5.54-.17a2.26 2.26 0 0 0 1.59-.68 3.46 3.46 0 0 0 .63-1.58 24.26 24.26 0 0 0 .16-2.58V15a24.27 24.27 0 0 0-.16-2.58z" fill="#fff"/></g></g></svg>