<svg xmlns="http://www.w3.org/2000/svg" viewBox="0 0 31.18 31.18"><g data-name="Layer 2"><g data-name="Layer 1"><circle cx="15.59" cy="15.59" r="15.59" fill="#29a8e0"/><path d="M21.92 11.56a5.07 5.07 0 0 1-1.49.42 2.66 2.66 0 0 0 1.14-1.47 5.11 5.11 0 0 1-1.65.65 2.56 2.56 0 0 0-1.9-.84A2.63 2.63 0 0 0 15.43 13a2.72 2.72 0 0 0 .07.61 7.31 7.31 0 0 1-5.35-2.78 2.71 2.71 0 0 0-.35 1.34 2.68 2.68 0 0 0 1.16 2.22A2.55 2.55 0 0 1 9.77 14a2.65 2.65 0 0 0 2.08 2.61 2.48 2.48 0 0 1-.68.09 2.52 2.52 0 0 1-.49 0 2.61 2.61 0 0 0 2.43 1.85 5.13 5.13 0 0 1-3.23 1.15 5.2 5.2 0 0 1-.62 0 7.23 7.23 0 0 0 4 1.2 7.44 7.44 0 0 0 7.39-7.58v-.35a5.33 5.33 0 0 0 1.3-1.38" fill="#fff"/></g></g></svg>